<?xml version="1.0" encoding="UTF-8"?>
<svg width="174px" height="44px" viewBox="0 0 174 44" version="1.1" xmlns="http://www.w3.org/2000/svg" xmlns:xlink="http://www.w3.org/1999/xlink">
    <!-- Generator: Sketch 43.2 (39069) - http://www.bohemiancoding.com/sketch -->
    <title>Logo / KO</title>
    <desc>Created with Sketch.</desc>
    <defs></defs>
    <g id="Symbols" stroke="none" stroke-width="1" fill="none" fill-rule="evenodd">
        <g id="Navigation/Nav3---Black" fill="#000000">
            <g id="Nav1---White">
                <g id="Logo-/-K">
                    <g id="Arnold_logo_KO">
                        <path d="M65.3868134,22.9380893 L63.2480497,18.0020089 L61.1088477,22.9380893 L65.3868134,22.9380893 L65.3868134,22.9380893 Z M53.4800501,29.658127 L63.2480497,9.17314257 L73.0193371,29.658127 L68.4198336,29.658127 L67.0760378,26.7451876 L59.4205001,26.7451876 L58.11528,29.658127 L53.4800501,29.658127 L53.4800501,29.658127 Z" id="Fill-1"></path>
                        <path d="M85.3326803,18.4319727 C86.486885,18.4319727 87.4718823,17.3679649 87.4718823,16.1914513 C87.4718823,15.0149378 86.486885,14.0632177 85.3326803,14.0632177 L81.1669351,14.0632177 L81.1669351,18.4319727 L85.3326803,18.4319727 L85.3326803,18.4319727 Z M76.7482555,10.0598884 L85.6987118,10.0598884 C89.076503,10.0598884 91.8346708,12.7761608 91.8346708,16.1072901 C91.8346708,18.6831483 90.1180488,20.755129 87.6687064,21.7349755 L91.8250268,29.6594352 L86.9971372,29.6594352 L83.1093129,21.9876774 L81.1669351,21.9876774 L81.1669351,29.6594352 L76.7482555,29.6594352 L76.7482555,10.0598884 L76.7482555,10.0598884 Z" id="Fill-2"></path>
                        <polyline id="Fill-3" points="96.7662328 9.17401471 109.234317 20.457294 109.234317 10.0590163 113.681929 10.0590163 113.677545 30.380911 101.184474 18.7544455 101.184474 29.6587811 96.7662328 29.6587811 96.7662328 9.17401471"></polyline>
                        <path d="M127.632989,25.4579126 C130.729133,25.4579126 133.262203,22.9380893 133.262203,19.88648 C133.262203,16.8065263 130.729133,14.2585765 127.632989,14.2585765 C124.565338,14.2585765 122.032269,16.8065263 122.032269,19.88648 C122.032269,22.9380893 124.565338,25.4579126 127.632989,25.4579126 M127.632989,9.77906012 C133.262203,9.77906012 137.765924,14.286703 137.765924,19.88648 C137.765924,25.4860391 133.262203,29.937429 127.632989,29.937429 C122.003994,29.937429 117.528328,25.4860391 117.528328,19.88648 C117.528328,14.286703 122.003994,9.77906012 127.632989,9.77906012" id="Fill-4"></path>
                        <polyline id="Fill-5" points="141.614953 10.0583622 146.033195 10.0583622 146.033195 25.5420739 153.26681 25.5420739 153.26681 29.658127 141.614953 29.658127 141.614953 10.0583622"></polyline>
                        <path d="M163.688187,25.5150376 C166.869154,25.5150376 169.177125,23.0231227 169.177125,19.8310993 C169.177125,16.6667663 166.869154,14.1750694 163.688187,14.1750694 L160.986567,14.1750694 L160.986567,25.5150376 L163.688187,25.5150376 L163.688187,25.5150376 Z M156.595724,10.0592343 L163.969834,10.0592343 C169.402223,10.0592343 173.849396,14.4543714 173.849396,19.8310993 C173.849396,25.2621178 169.402223,29.6589991 163.969834,29.6589991 L156.595724,29.6589991 L156.595724,10.0592343 L156.595724,10.0592343 Z" id="Fill-6"></path>
                        <path d="M21.9154232,0.212583524 C9.94904276,0.212583524 0.2139202,9.89723476 0.2139202,21.8006039 C0.2139202,33.7044091 9.94904276,43.3888423 21.9154232,43.3888423 C33.8818035,43.3888423 43.6169261,33.7044091 43.6169261,21.8006039 C43.6169261,9.89723476 33.8818035,0.212583524 21.9154232,0.212583524 M21.9154232,3.04005341 C32.3311013,3.04005341 40.774593,11.439392 40.774593,21.8006039 C40.774593,32.1618158 32.3311013,40.5613724 21.9154232,40.5613724 C11.499745,40.5613724 3.05625335,32.1618158 3.05625335,21.8006039 C3.05625335,11.439392 11.499745,3.04005341 21.9154232,3.04005341" id="Fill-7"></path>
                        <polyline id="Fill-8" points="17.2913714 25.2462012 21.5377751 17.9296214 20.0725532 15.3877766 10.6745303 31.6158577 13.5942342 31.6158577 15.8101494 27.7980757 27.7728037 27.7980757 29.2286008 25.2462012 17.2913714 25.2462012"></polyline>
                        <polyline id="Fill-9" points="22.4386071 17.7231429 24.30208 20.9339172 27.2524691 20.9339172 20.1054303 8.55915775 8.44458758 28.6503721 9.90871354 31.1749922 20.0743067 13.6214801 22.4386071 17.7231429"></polyline>
                        <polyline id="Fill-10" points="29.9913491 25.6925176 28.5401548 28.2361067 30.2469136 31.1769545 31.699423 28.6412146 29.9913491 25.6925176"></polyline>
                        <polyline id="Fill-11" points="20.3048846 21.814122 18.8236626 24.3659964 30.2440642 24.3659964 32.466774 28.2027475 35.378149 28.2027475 23.6923197 8.06814432 20.8423153 8.06814432 28.7812534 21.814122 20.3048846 21.814122"></polyline>
                        <polyline id="Fill-12" points="32.4645822 29.0829523 31.0140454 31.6158577 33.9144614 31.6158577 35.3860395 29.0829523 32.4645822 29.0829523"></polyline>
                    </g>
                </g>
            </g>
        </g>
    </g>
</svg>